<?xml version="1.0" standalone="no"?>
<!DOCTYPE svg PUBLIC "-//W3C//DTD SVG 20010904//EN"
 "http://www.w3.org/TR/2001/REC-SVG-20010904/DTD/svg10.dtd">
<svg version="1.0" xmlns="http://www.w3.org/2000/svg"
 width="1024.000000pt" height="1024.000000pt" viewBox="0 0 1024.000000 1024.000000"
 preserveAspectRatio="xMidYMid meet">
<metadata>
Created by potrace 1.14, written by Peter Selinger 2001-2017
</metadata>
<g transform="translate(0.000000,1024.000000) scale(0.100000,-0.100000)"
fill="#000000" stroke="none">
<path d="M3098 9235 c-2 -1 -75 -5 -163 -9 -88 -3 -180 -8 -205 -11 -48 -5
-145 -17 -170 -20 -8 -2 -31 -5 -50 -8 -149 -22 -341 -83 -495 -157 -255 -124
-432 -267 -627 -508 -9 -11 -25 -33 -35 -49 -9 -15 -20 -30 -24 -33 -12 -10
-124 -209 -134 -240 -1 -3 -11 -25 -22 -50 -21 -48 -73 -196 -73 -210 0 -5 -5
-21 -12 -37 -6 -15 -10 -31 -10 -36 1 -4 -3 -28 -9 -55 -11 -49 -13 -57 -25
-137 -4 -27 -8 -53 -10 -57 -1 -5 -2 -26 -3 -49 -1 -29 -4 -38 -13 -33 -9 5
-10 4 -3 -4 6 -6 8 -38 7 -72 -3 -52 -6 -61 -20 -56 -15 5 -15 4 -2 -6 16 -13
28 -54 13 -45 -4 3 -7 -38 -5 -90 3 -72 0 -98 -10 -104 -10 -7 -10 -9 0 -9 6
0 12 -9 12 -21 0 -13 -4 -18 -12 -13 -10 6 -10 4 -2 -7 13 -18 16 -57 3 -64
-5 -4 -6 -12 -2 -18 10 -16 11 -77 2 -83 -5 -3 -5 -15 -1 -27 4 -12 6 -40 5
-62 -2 -34 -3 -70 -2 -110 2 -80 -5 -173 -14 -184 -9 -12 -9 -13 0 -7 10 6 13
-78 13 -404 0 -326 -3 -410 -12 -404 -10 6 -10 4 0 -7 16 -18 16 -83 0 -73
-10 6 -10 4 0 -7 16 -18 16 -83 0 -73 -10 6 -10 4 0 -7 17 -18 17 -83 -1 -73
-9 6 -9 5 0 -7 17 -22 19 -724 1 -713 -10 6 -11 5 -1 -7 9 -11 12 -75 12 -222
0 -114 2 -211 5 -215 3 -4 1 -14 -4 -21 -4 -8 -4 -26 0 -41 5 -16 4 -32 -2
-38 -6 -6 -6 -12 0 -16 7 -4 7 -17 2 -38 -5 -17 -7 -35 -4 -40 10 -15 10 -238
1 -238 -5 0 -5 -6 0 -12 10 -17 10 -78 1 -100 -5 -9 -5 -19 0 -22 10 -6 8
-157 -2 -174 -4 -7 -3 -12 2 -12 12 0 9 -63 -3 -72 -7 -5 -7 -8 0 -8 6 0 11
-18 11 -40 1 -24 -3 -37 -9 -33 -6 4 -7 1 -2 -8 13 -20 13 -49 1 -49 -8 0 -8
-3 0 -8 13 -9 13 -105 -1 -114 -6 -5 -5 -8 2 -8 13 0 13 -26 0 -47 -4 -6 -4
-14 1 -16 4 -3 8 -63 10 -134 3 -151 10 -272 18 -284 3 -5 0 -9 -6 -9 -6 0 -9
-4 -6 -9 3 -5 8 -26 11 -47 3 -22 8 -45 10 -51 2 -7 -1 -13 -8 -13 -7 0 -8 -3
-2 -8 16 -11 18 -52 3 -70 -10 -12 -10 -14 0 -8 14 8 19 -3 26 -59 3 -22 9
-54 14 -71 7 -23 7 -36 -1 -44 -9 -10 -9 -11 0 -6 14 8 29 -36 18 -53 -3 -6
-1 -11 6 -11 6 0 9 -8 6 -20 -3 -11 -1 -18 4 -14 5 3 10 -4 10 -15 2 -25 3
-29 17 -64 7 -16 9 -33 6 -39 -5 -7 -2 -8 6 -3 10 6 12 1 8 -18 -3 -15 -2 -24
2 -22 6 4 23 -23 21 -32 -1 -4 103 -207 109 -213 9 -9 40 -59 40 -65 0 -4 -5
-3 -12 1 -7 4 -8 3 -4 -5 4 -6 11 -9 15 -6 9 5 68 -77 60 -83 -2 -2 4 -8 14
-14 14 -7 15 -13 7 -23 -9 -11 -7 -12 9 -8 12 3 21 1 21 -4 0 -6 16 -26 35
-46 20 -21 32 -37 28 -38 -4 0 2 -4 15 -9 12 -5 22 -16 22 -25 0 -8 5 -15 11
-15 6 0 32 -21 58 -47 26 -27 66 -61 89 -77 23 -16 42 -33 42 -38 0 -5 4 -7 8
-4 5 3 14 -4 22 -14 8 -10 18 -16 24 -13 5 4 7 -1 3 -11 -4 -10 -3 -15 3 -11
14 9 71 -27 66 -41 -3 -7 5 -9 20 -6 13 2 24 0 24 -6 0 -6 10 -12 23 -14 14
-2 21 -9 20 -22 -1 -12 2 -15 9 -8 10 10 58 -7 58 -21 0 -5 5 -5 10 -2 6 3 10
1 10 -4 0 -6 3 -10 8 -9 14 3 92 -25 92 -34 0 -5 -5 -6 -12 -2 -7 5 -8 3 -3
-6 6 -9 4 -12 -7 -8 -8 4 -15 1 -15 -6 0 -17 25 -16 31 1 3 8 11 11 17 7 8 -5
9 -3 4 7 -7 11 -6 12 6 2 8 -6 18 -11 22 -11 4 0 28 -6 53 -13 33 -10 44 -18
41 -30 -2 -8 1 -16 8 -16 7 0 11 6 8 14 -3 7 0 13 6 13 6 0 11 -4 11 -9 0 -5
9 -7 20 -4 15 4 20 0 21 -13 0 -12 3 -14 6 -6 4 10 8 10 21 0 12 -10 14 -10 8
-1 -5 9 -2 11 8 7 9 -3 14 -9 11 -13 -2 -4 2 -8 10 -8 8 0 11 5 8 10 -4 7 1 8
13 3 10 -5 36 -10 57 -13 38 -6 44 -12 27 -29 -7 -7 -6 -11 4 -11 8 0 13 4 10
9 -3 4 0 8 6 8 6 0 9 4 6 9 -3 4 19 3 49 -4 30 -7 55 -11 55 -8 0 3 8 -3 18
-14 9 -10 14 -14 10 -9 -13 16 -9 24 10 21 10 -1 16 -10 14 -21 -2 -18 -2 -18
8 -1 14 23 66 23 79 0 10 -17 10 -17 11 0 0 10 4 16 8 13 5 -3 40 -6 80 -8 45
-1 68 -6 64 -13 -3 -5 2 -4 11 4 14 11 17 11 17 0 0 -11 3 -11 11 1 9 12 10
11 6 -7 -3 -15 -1 -20 9 -16 8 3 12 9 9 13 -3 5 -1 11 5 15 5 3 10 1 10 -5 0
-7 7 -8 18 -3 29 14 67 9 66 -8 -1 -9 4 -16 11 -16 7 0 11 6 8 14 -3 8 2 13
12 13 12 0 15 -5 11 -17 -6 -17 -5 -17 7 -1 15 19 107 22 107 4 0 -7 3 -7 8 1
11 17 487 13 487 -4 0 -6 3 -15 7 -19 4 -3 6 2 4 13 -4 19 2 20 177 20 129 1
184 -2 189 -10 5 -7 8 -8 8 -2 0 7 34 11 87 10 76 0 86 -2 89 -18 1 -11 5 -22
9 -25 3 -4 4 5 2 19 l-5 25 221 1 c160 1 224 -2 229 -10 5 -7 8 -8 8 -2 0 7
34 11 87 10 76 0 86 -2 89 -18 1 -11 5 -22 9 -25 3 -4 4 5 2 19 l-5 26 356 -1
c265 -1 357 -4 357 -13 0 -6 3 -15 7 -19 4 -3 6 2 4 13 -4 18 2 20 56 22 34 1
57 -2 54 -8 -3 -5 1 -11 9 -14 8 -4 12 -1 9 6 -3 9 8 14 32 15 20 2 33 -1 30
-7 -3 -5 1 -11 9 -14 8 -4 12 -1 9 6 -3 9 8 14 32 15 20 2 33 -1 30 -7 -3 -5
1 -11 9 -14 8 -4 12 -1 9 6 -3 9 8 14 32 15 20 2 33 -1 30 -7 -3 -5 1 -11 9
-14 9 -4 12 -1 9 7 -4 10 63 13 348 13 311 0 354 -2 366 -16 11 -15 12 -15 7
0 -5 14 9 16 125 16 114 -1 130 -3 125 -16 -4 -14 -4 -14 7 0 7 9 19 14 27 11
8 -3 11 0 7 6 -4 6 2 8 14 5 11 -3 20 -10 20 -17 0 -7 3 -7 8 2 9 14 100 21
120 9 7 -5 12 -3 12 3 0 6 5 8 10 5 6 -4 8 -10 5 -15 -3 -4 4 -6 16 -3 16 4
18 8 7 14 -9 7 -7 8 7 6 11 -1 26 -7 34 -11 10 -6 12 -5 7 2 -4 7 -2 12 3 12
6 0 11 -8 12 -17 0 -16 1 -15 8 2 8 19 8 19 20 0 10 -16 11 -16 7 -2 -4 14 1
17 30 17 19 0 33 -4 30 -8 -3 -5 1 -9 8 -9 8 0 12 6 10 12 -6 15 27 16 45 1
11 -8 13 -8 7 1 -5 9 0 13 16 13 33 0 96 7 150 18 26 5 45 5 42 1 -3 -5 0 -9
5 -9 6 0 11 5 11 11 0 6 9 9 20 6 11 -3 20 -1 20 4 0 5 3 8 8 7 4 -1 30 2 57
7 28 5 56 8 64 6 8 -1 10 2 5 11 -5 9 -2 8 11 -2 11 -9 16 -10 11 -2 -7 11 5
17 27 13 4 -1 18 5 30 14 27 19 34 19 34 0 0 -14 -11 -20 -31 -16 -5 1 -4 -4
2 -12 7 -8 8 -18 4 -22 -4 -5 -1 -5 6 -1 7 4 10 11 7 16 -3 4 2 11 10 14 8 3
14 11 13 18 -2 7 3 12 10 10 6 -1 12 3 12 9 0 5 5 7 10 4 6 -3 10 -1 10 4 0 6
3 10 8 9 4 -1 17 3 28 10 12 6 24 8 28 4 4 -3 10 -2 14 3 7 10 154 85 166 85
4 0 4 -6 0 -12 -4 -8 -3 -10 2 -5 5 5 9 14 9 20 0 6 14 16 30 22 17 5 38 19
47 30 10 11 17 16 18 12 0 -5 7 -2 15 5 38 34 47 39 61 34 8 -3 13 -2 10 2 -7
11 4 23 49 56 22 16 45 34 50 40 6 6 49 48 97 94 47 45 84 82 81 82 -4 0 7 12
72 84 17 18 31 38 33 45 3 17 63 97 69 93 2 -2 8 0 11 4 4 4 1 4 -5 0 -20 -11
-16 0 25 67 52 87 110 215 125 279 5 18 12 25 21 22 8 -3 17 0 22 7 4 8 3 10
-4 5 -23 -14 -34 5 -15 27 12 14 13 18 3 12 -12 -7 -13 -6 -3 7 7 8 10 18 6
21 -3 4 2 7 13 7 14 0 15 3 6 8 -9 6 -10 16 -3 34 5 14 12 38 15 54 2 16 7 38
9 49 3 11 8 45 12 75 4 30 10 59 13 65 3 5 5 25 3 44 -2 20 3 37 11 42 10 7
10 9 0 9 -8 0 -10 6 -5 18 5 9 8 35 8 57 0 22 5 43 10 47 6 5 5 8 -3 8 -7 0
-11 4 -8 8 3 5 6 37 7 70 1 37 6 62 13 62 7 0 8 3 1 8 -13 9 -13 122 -1 114 6
-3 6 3 2 14 -11 27 -14 48 -9 57 3 5 5 96 5 203 0 143 3 192 12 188 7 -4 6 -2
-1 7 -17 18 -17 83 0 73 9 -6 9 -4 0 7 -17 18 -17 83 0 73 9 -6 9 -4 0 7 -17
18 -17 83 0 73 9 -6 9 -4 0 7 -17 18 -17 83 0 73 9 -6 9 -4 0 7 -17 18 -17 83
0 73 9 -6 9 -4 0 7 -17 18 -17 83 0 73 9 -6 9 -4 -1 7 -17 18 -17 83 1 73 9
-6 9 -5 0 7 -17 22 -19 723 -1 713 10 -5 11 -4 1 7 -17 18 -17 83 0 73 9 -6 9
-4 0 7 -17 18 -17 83 0 73 9 -6 9 -4 0 7 -17 18 -17 83 0 73 9 -6 9 -4 0 7
-17 18 -17 83 0 73 9 -6 9 -4 0 7 -17 18 -17 83 0 73 9 -6 9 -4 0 7 -17 18
-17 83 0 73 9 -6 9 -4 0 7 -18 18 -18 83 0 73 9 -6 9 -5 0 7 -17 22 -19 723
-1 713 10 -5 11 -4 1 7 -17 18 -17 83 0 73 10 -6 10 -4 0 7 -17 18 -17 83 0
73 10 -6 10 -4 0 7 -17 18 -17 83 0 73 10 -6 10 -4 0 7 -17 18 -17 83 0 73 10
-6 10 -4 0 7 -17 18 -17 83 0 73 10 -6 10 -4 0 7 -17 18 -17 83 0 73 10 -6 10
-4 0 7 -17 17 -17 61 0 78 8 9 8 12 0 7 -9 -5 -11 45 -11 199 0 113 -2 208 -5
211 -3 4 -2 16 3 29 5 13 6 26 3 29 -10 10 -10 96 -1 96 5 0 4 9 -2 19 -13 26
-14 52 0 31 5 -8 10 -10 10 -4 0 5 -4 14 -9 20 -5 5 -12 61 -15 124 -3 63 -8
126 -10 140 -3 14 -7 48 -10 75 -17 155 -79 395 -133 515 -176 393 -435 671
-806 864 -170 88 -438 168 -642 190 -94 11 -160 17 -245 23 -79 5 -4276 13
-4282 8z"/>
<path d="M1133 2085 c0 -8 4 -12 9 -9 5 3 6 10 3 15 -9 13 -12 11 -12 -6z"/>
<path d="M1275 1800 c-3 -5 -1 -10 4 -10 6 0 11 5 11 10 0 6 -2 10 -4 10 -3 0
-8 -4 -11 -10z"/>
<path d="M8955 1801 c-3 -5 -2 -12 3 -15 5 -3 9 1 9 9 0 17 -3 19 -12 6z"/>
<path d="M8876 1702 c-3 -5 1 -9 9 -9 8 0 12 4 9 9 -3 4 -7 8 -9 8 -2 0 -6 -4
-9 -8z"/>
<path d="M8850 1659 c0 -5 5 -7 10 -4 6 3 10 8 10 11 0 2 -4 4 -10 4 -5 0 -10
-5 -10 -11z"/>
<path d="M1459 1578 c-5 -18 -6 -38 -1 -34 7 8 12 36 6 36 -2 0 -4 -1 -5 -2z"/>
<path d="M8738 1558 c-9 -5 -6 -7 9 -5 12 2 25 6 28 8 8 9 -23 6 -37 -3z"/>
<path d="M8734 1515 c0 -13 3 -22 7 -19 8 4 6 30 -2 38 -3 3 -5 -5 -5 -19z"/>
<path d="M8675 1499 c-11 -16 -1 -19 13 -3 7 8 8 14 3 14 -5 0 -13 -5 -16 -11z"/>
<path d="M1516 1487 c3 -10 9 -15 12 -12 3 3 0 11 -7 18 -10 9 -11 8 -5 -6z"/>
<path d="M1550 1478 c0 -6 3 -8 7 -5 3 4 13 1 22 -6 14 -11 14 -10 2 6 -15 20
-31 22 -31 5z"/>
<path d="M1613 1435 c0 -8 4 -12 9 -9 5 3 6 10 3 15 -9 13 -12 11 -12 -6z"/>
<path d="M8630 1436 c7 -7 13 -7 20 0 6 6 3 10 -10 10 -13 0 -16 -4 -10 -10z"/>
<path d="M8633 1405 c0 -8 4 -12 9 -9 5 3 6 10 3 15 -9 13 -12 11 -12 -6z"/>
<path d="M8573 1393 c0 -6 5 -9 11 -5 6 4 14 7 18 7 19 0 14 11 -6 11 -12 0
-23 -6 -23 -13z"/>
<path d="M1720 1335 c-7 -8 -17 -12 -23 -8 -6 4 -7 1 -3 -6 6 -9 12 -9 25 3
10 9 21 13 26 9 4 -5 5 -2 1 5 -9 15 -11 15 -26 -3z"/>
<path d="M8559 1333 c-13 -17 -13 -17 6 -3 11 8 22 16 24 17 2 2 0 3 -6 3 -6
0 -17 -8 -24 -17z"/>
<path d="M8480 1326 c0 -2 7 -7 16 -10 8 -3 12 -2 9 4 -6 10 -25 14 -25 6z"/>
<path d="M1793 1285 c0 -8 3 -13 5 -10 3 3 10 0 17 -5 8 -7 12 -5 12 5 0 8 -3
13 -5 10 -3 -3 -10 0 -17 5 -8 7 -12 5 -12 -5z"/>
<path d="M8405 1280 c-3 -6 1 -7 9 -4 18 7 21 14 7 14 -6 0 -13 -4 -16 -10z"/>
<path d="M8473 1275 c0 -8 4 -12 9 -9 5 3 6 10 3 15 -9 13 -12 11 -12 -6z"/>
<path d="M8356 1247 c3 -10 9 -15 12 -12 3 3 0 11 -7 18 -10 9 -11 8 -5 -6z"/>
<path d="M1853 1234 c0 -10 4 -11 12 -4 7 6 21 7 31 4 11 -4 16 -4 12 1 -13
14 -55 14 -55 -1z"/>
<path d="M8302 1205 c15 -16 20 -17 30 -6 11 11 10 13 0 7 -7 -4 -21 -2 -30 5
-15 12 -15 11 0 -6z"/>
<path d="M1860 1206 c0 -2 8 -10 18 -17 15 -13 16 -12 3 4 -13 16 -21 21 -21
13z"/>
<path d="M1956 1202 c-3 -5 1 -9 9 -9 8 0 12 4 9 9 -3 4 -7 8 -9 8 -2 0 -6 -4
-9 -8z"/>
<path d="M1909 1183 c-13 -16 -12 -17 4 -4 16 13 21 21 13 21 -2 0 -10 -8 -17
-17z"/>
<path d="M8250 1176 c0 -2 8 -10 18 -17 15 -13 16 -12 3 4 -13 16 -21 21 -21
13z"/>
<path d="M8316 1167 c3 -10 9 -15 12 -12 3 3 0 11 -7 18 -10 9 -11 8 -5 -6z"/>
<path d="M2039 1152 c-13 -15 -12 -16 3 -4 13 10 17 10 21 0 4 -9 6 -9 6 -1 2
20 -16 24 -30 5z"/>
<path d="M8233 1155 c0 -8 4 -12 9 -9 5 3 6 10 3 15 -9 13 -12 11 -12 -6z"/>
<path d="M1975 1140 c3 -5 8 -10 11 -10 2 0 4 5 4 10 0 6 -5 10 -11 10 -5 0
-7 -4 -4 -10z"/>
<path d="M8193 1133 c17 -20 39 -24 53 -11 3 4 -2 5 -13 3 -10 -1 -27 5 -38
14 -20 16 -20 16 -2 -6z"/>
<path d="M2050 1125 c0 -5 5 -17 10 -25 5 -8 10 -10 10 -5 0 6 -5 17 -10 25
-5 8 -10 11 -10 5z"/>
<path d="M8096 1113 c-6 -14 -5 -15 5 -6 7 7 10 15 7 18 -3 3 -9 -2 -12 -12z"/>
<path d="M2171 1084 c0 -11 3 -14 6 -6 3 7 2 16 -1 19 -3 4 -6 -2 -5 -13z"/>
<path d="M8050 1096 c0 -2 8 -10 18 -17 15 -13 16 -12 3 4 -13 16 -21 21 -21
13z"/>
<path d="M8110 1079 c0 -5 5 -7 10 -4 6 3 10 8 10 11 0 2 -4 4 -10 4 -5 0 -10
-5 -10 -11z"/>
<path d="M2309 1063 c-13 -16 -12 -17 4 -4 9 7 17 15 17 17 0 8 -8 3 -21 -13z"/>
<path d="M7947 1067 c-3 -7 3 -13 14 -13 13 0 15 3 7 13 -6 7 -12 13 -13 13
-2 0 -5 -6 -8 -13z"/>
<path d="M8029 1063 c-13 -16 -12 -17 4 -4 16 13 21 21 13 21 -2 0 -10 -8 -17
-17z"/>
<path d="M2200 1060 c-9 -6 -10 -10 -3 -10 6 0 15 5 18 10 8 12 4 12 -15 0z"/>
<path d="M2240 1060 c8 -5 20 -10 25 -10 6 0 3 5 -5 10 -8 5 -19 10 -25 10 -5
0 -3 -5 5 -10z"/>
<path d="M8073 1045 c0 -8 4 -12 9 -9 5 3 6 10 3 15 -9 13 -12 11 -12 -6z"/>
<path d="M2336 1033 c-6 -14 -5 -15 5 -6 7 7 10 15 7 18 -3 3 -9 -2 -12 -12z"/>
<path d="M7834 1025 c1 -8 8 -21 16 -28 12 -10 12 -9 2 4 -6 9 -9 18 -6 21 3
3 1 9 -4 12 -6 3 -9 -1 -8 -9z"/>
<path d="M2433 1010 c-1 -11 2 -22 6 -24 4 -3 7 4 6 14 -2 27 -10 33 -12 10z"/>
<path d="M7684 1016 c-3 -8 -12 -12 -20 -9 -8 3 -14 1 -14 -5 0 -6 8 -9 18 -7
9 1 22 -1 28 -6 7 -5 11 -3 11 6 0 8 -5 11 -10 8 -6 -4 -8 0 -4 10 3 10 4 17
1 17 -2 0 -7 -6 -10 -14z"/>
<path d="M7860 1026 c0 -2 8 -10 18 -17 15 -13 16 -12 3 4 -13 16 -21 21 -21
13z"/>
<path d="M7568 1012 c-17 -7 -17 -8 0 -18 15 -10 18 -8 18 7 0 11 0 19 -1 18
0 0 -8 -4 -17 -7z"/>
<path d="M2554 995 c3 -23 12 -26 13 -5 1 11 -2 20 -7 20 -4 0 -7 -7 -6 -15z"/>
<path d="M2606 998 c4 -5 9 -7 12 -4 3 3 15 -2 26 -11 21 -18 21 -18 3 3 -16
20 -52 30 -41 12z"/>
<path d="M7474 985 c0 -13 3 -22 7 -19 8 4 6 30 -2 38 -3 3 -5 -5 -5 -19z"/>
<path d="M2815 990 c-3 -6 1 -7 9 -4 18 7 21 14 7 14 -6 0 -13 -4 -16 -10z"/>
<path d="M2907 987 c-3 -7 3 -13 14 -13 13 0 15 3 7 13 -6 7 -12 13 -13 13 -2
0 -5 -6 -8 -13z"/>
<path d="M2748 983 c7 -3 16 -2 19 1 4 3 -2 6 -13 5 -11 0 -14 -3 -6 -6z"/>
<path d="M3390 982 c0 -12 22 -32 35 -32 5 0 2 5 -8 11 -9 6 -15 14 -12 20 4
5 1 9 -4 9 -6 0 -11 -4 -11 -8z"/>
<path d="M3510 980 c0 -5 5 -10 11 -10 5 0 7 5 4 10 -3 6 -8 10 -11 10 -2 0
-4 -4 -4 -10z"/>
<path d="M3995 980 c-3 -5 -1 -10 4 -10 6 0 11 5 11 10 0 6 -2 10 -4 10 -3 0
-8 -4 -11 -10z"/>
<path d="M4113 963 c0 -15 2 -22 4 -15 4 10 8 10 21 0 12 -9 11 -5 -3 12 -11
14 -20 26 -21 28 -1 2 -1 -10 -1 -25z"/>
<path d="M4435 980 c-3 -5 -1 -10 4 -10 6 0 11 5 11 10 0 6 -2 10 -4 10 -3 0
-8 -4 -11 -10z"/>
<path d="M4635 980 c-3 -5 -1 -10 4 -10 6 0 11 5 11 10 0 6 -2 10 -4 10 -3 0
-8 -4 -11 -10z"/>
<path d="M4753 963 c0 -15 2 -22 4 -15 4 10 8 10 21 0 12 -9 11 -5 -3 12 -11
14 -20 26 -21 28 -1 2 -1 -10 -1 -25z"/>
<path d="M5075 980 c-3 -5 -1 -10 4 -10 6 0 11 5 11 10 0 6 -2 10 -4 10 -3 0
-8 -4 -11 -10z"/>
<path d="M6673 975 c0 -8 4 -12 9 -9 5 3 6 10 3 15 -9 13 -12 11 -12 -6z"/>
<path d="M6956 982 c-3 -5 1 -9 9 -9 8 0 12 4 9 9 -3 4 -7 8 -9 8 -2 0 -6 -4
-9 -8z"/>
<path d="M7558 969 c12 -14 20 -29 17 -32 -3 -4 -2 -5 2 -2 4 3 8 13 9 21 1 9
0 13 -3 10 -4 -3 -16 2 -27 11 -18 15 -18 14 2 -8z"/>
<path d="M2949 963 c-13 -16 -12 -17 4 -4 9 7 17 15 17 17 0 8 -8 3 -21 -13z"/>
<path d="M3074 969 c-3 -6 -2 -15 3 -20 5 -5 9 -1 9 11 0 23 -2 24 -12 9z"/>
<path d="M5919 968 c15 -21 31 -23 31 -6 0 6 -3 8 -7 5 -3 -4 -13 -1 -22 6
-14 11 -14 10 -2 -5z"/>
<path d="M5993 965 c0 -8 4 -15 9 -15 4 0 8 4 8 9 0 6 -4 12 -8 15 -5 3 -9 -1
-9 -9z"/>
<path d="M6642 964 c-7 -8 -8 -14 -3 -14 10 0 25 19 20 25 -2 1 -10 -3 -17
-11z"/>
<path d="M7234 956 c0 -12 6 -23 13 -23 9 0 10 4 3 12 -5 7 -7 14 -4 17 3 3 1
8 -3 11 -5 3 -9 -5 -9 -17z"/>
<path d="M7395 970 c-4 -6 -10 -8 -15 -5 -5 3 -11 2 -14 -3 -2 -4 6 -8 18 -8
12 0 23 6 23 13 0 16 -4 16 -12 3z"/>
<path d="M7653 965 c0 -8 4 -12 9 -9 5 3 6 10 3 15 -9 13 -12 11 -12 -6z"/>
<path d="M3256 953 c-6 -14 -5 -15 5 -6 7 7 10 15 7 18 -3 3 -9 -2 -12 -12z"/>
<path d="M3350 961 c0 -6 4 -13 10 -16 6 -3 7 1 4 9 -7 18 -14 21 -14 7z"/>
<path d="M3559 968 c-5 -18 -6 -38 -1 -34 7 8 12 36 6 36 -2 0 -4 -1 -5 -2z"/>
<path d="M3625 960 c-3 -6 1 -7 9 -4 18 7 21 14 7 14 -6 0 -13 -4 -16 -10z"/>
<path d="M3693 953 c0 -6 5 -9 11 -5 6 4 14 7 18 7 19 0 14 11 -6 11 -12 0
-23 -6 -23 -13z"/>
<path d="M3816 958 c3 -5 10 -6 15 -3 13 9 11 12 -6 12 -8 0 -12 -4 -9 -9z"/>
<path d="M3860 960 c-8 -5 -10 -10 -5 -10 6 0 17 5 25 10 8 5 11 10 5 10 -5 0
-17 -5 -25 -10z"/>
<path d="M3921 956 c-9 -11 -9 -16 1 -22 7 -4 10 -4 6 1 -4 4 -3 14 3 22 6 7
9 13 6 13 -2 0 -10 -6 -16 -14z"/>
<path d="M4179 953 c-12 -16 -12 -17 2 -6 9 7 19 10 22 6 4 -3 7 -1 7 5 0 17
-16 15 -31 -5z"/>
<path d="M4273 951 c0 -11 5 -18 9 -15 4 3 5 11 1 19 -7 21 -12 19 -10 -4z"/>
<path d="M4390 958 c0 -4 4 -8 9 -8 6 0 12 4 15 8 3 5 -1 9 -9 9 -8 0 -15 -4
-15 -9z"/>
<path d="M4500 960 c-8 -5 -10 -10 -5 -10 6 0 17 5 25 10 8 5 11 10 5 10 -5 0
-17 -5 -25 -10z"/>
<path d="M4561 956 c-9 -11 -9 -16 1 -22 7 -4 10 -4 6 1 -4 4 -3 14 3 22 6 7
9 13 6 13 -2 0 -10 -6 -16 -14z"/>
<path d="M4819 953 c-12 -16 -12 -17 2 -6 9 7 19 10 22 6 4 -3 7 -1 7 5 0 17
-16 15 -31 -5z"/>
<path d="M4913 951 c0 -11 5 -18 9 -15 4 3 5 11 1 19 -7 21 -12 19 -10 -4z"/>
<path d="M5030 958 c0 -4 4 -8 9 -8 6 0 12 4 15 8 3 5 -1 9 -9 9 -8 0 -15 -4
-15 -9z"/>
<path d="M5299 953 c-12 -16 -12 -17 2 -6 9 7 19 10 22 6 4 -3 7 -1 7 5 0 17
-16 15 -31 -5z"/>
<path d="M5393 951 c0 -11 5 -18 9 -15 4 3 5 11 1 19 -7 21 -12 19 -10 -4z"/>
<path d="M5496 953 c-6 -14 -5 -15 5 -6 7 7 10 15 7 18 -3 3 -9 -2 -12 -12z"/>
<path d="M5555 960 c3 -5 8 -10 11 -10 2 0 4 5 4 10 0 6 -5 10 -11 10 -5 0 -7
-4 -4 -10z"/>
<path d="M5613 953 c0 -6 5 -9 11 -5 6 4 14 7 18 7 19 0 14 11 -6 11 -12 0
-23 -6 -23 -13z"/>
<path d="M5736 958 c3 -4 11 -5 19 -1 21 7 19 12 -4 10 -11 0 -18 -5 -15 -9z"/>
<path d="M6130 961 c0 -6 4 -13 10 -16 6 -3 7 1 4 9 -7 18 -14 21 -14 7z"/>
<path d="M6195 961 c-3 -5 -2 -12 3 -15 5 -3 9 1 9 9 0 17 -3 19 -12 6z"/>
<path d="M6266 962 c-2 -4 4 -8 14 -8 10 0 16 4 14 8 -3 4 -9 8 -14 8 -5 0
-11 -4 -14 -8z"/>
<path d="M6354 963 c3 -4 0 -13 -6 -22 -10 -12 -7 -12 8 2 11 9 23 16 25 15 2
-2 3 -1 1 1 -1 3 -10 6 -18 7 -9 1 -13 0 -10 -3z"/>
<path d="M6513 950 c1 -21 10 -18 13 5 1 8 -2 15 -6 15 -5 0 -8 -9 -7 -20z"/>
<path d="M6730 962 c0 -5 7 -9 15 -9 8 0 12 4 9 9 -3 4 -9 8 -15 8 -5 0 -9 -4
-9 -8z"/>
<path d="M6800 960 c-12 -7 -10 -9 8 -7 12 0 22 5 22 9 0 11 -12 10 -30 -2z"/>
<path d="M6880 960 c-12 -7 -10 -9 8 -7 12 0 22 5 22 9 0 11 -12 10 -30 -2z"/>
<path d="M6995 960 c3 -5 8 -10 11 -10 2 0 4 5 4 10 0 6 -5 10 -11 10 -5 0 -7
-4 -4 -10z"/>
<path d="M7079 968 c-6 -20 -6 -39 0 -42 4 -3 7 6 7 20 0 20 -4 32 -7 22z"/>
<path d="M7194 956 c1 -8 5 -18 8 -22 4 -3 5 1 4 10 -1 8 -5 18 -8 22 -4 3 -5
-1 -4 -10z"/>
<path d="M7336 953 c-6 -14 -5 -15 5 -6 7 7 10 15 7 18 -3 3 -9 -2 -12 -12z"/>
<path d="M3793 945 c0 -8 4 -12 9 -9 5 3 6 10 3 15 -9 13 -12 11 -12 -6z"/>
<path d="M5713 945 c0 -8 4 -12 9 -9 5 3 6 10 3 15 -9 13 -12 11 -12 -6z"/>
<path d="M6229 943 c-13 -16 -12 -17 4 -4 16 13 21 21 13 21 -2 0 -10 -8 -17
-17z"/>
<path d="M7275 951 c-3 -5 -2 -12 3 -15 5 -3 9 1 9 9 0 17 -3 19 -12 6z"/>
<path d="M2590 939 c0 -5 5 -7 10 -4 6 3 10 8 10 11 0 2 -4 4 -10 4 -5 0 -10
-5 -10 -11z"/>
<path d="M2735 940 c3 -5 8 -10 11 -10 2 0 4 5 4 10 0 6 -5 10 -11 10 -5 0 -7
-4 -4 -10z"/>
<path d="M3100 945 c0 -7 30 -13 34 -7 3 4 -4 9 -15 9 -10 1 -19 0 -19 -2z"/>
<path d="M3184 942 c4 -3 14 -7 22 -8 9 -1 13 0 10 4 -4 3 -14 7 -22 8 -9 1
-13 0 -10 -4z"/>
<path d="M3506 938 c3 -4 9 -8 15 -8 5 0 9 4 9 8 0 5 -7 9 -15 9 -8 0 -12 -4
-9 -9z"/>
<path d="M5759 933 c-13 -16 -12 -17 4 -4 16 13 21 21 13 21 -2 0 -10 -8 -17
-17z"/>
<path d="M7605 940 c-3 -6 1 -7 9 -4 18 7 21 14 7 14 -6 0 -13 -4 -16 -10z"/>
<path d="M3715 931 c-3 -5 -2 -12 3 -15 5 -3 9 1 9 9 0 17 -3 19 -12 6z"/>
<path d="M4195 931 c-3 -5 -2 -12 3 -15 5 -3 9 1 9 9 0 17 -3 19 -12 6z"/>
<path d="M4389 923 c-13 -16 -12 -17 4 -4 9 7 17 15 17 17 0 8 -8 3 -21 -13z"/>
<path d="M4835 931 c-3 -5 -2 -12 3 -15 5 -3 9 1 9 9 0 17 -3 19 -12 6z"/>
<path d="M5029 923 c-13 -16 -12 -17 4 -4 16 13 21 21 13 21 -2 0 -10 -8 -17
-17z"/>
<path d="M5315 931 c-3 -5 -2 -12 3 -15 5 -3 9 1 9 9 0 17 -3 19 -12 6z"/>
<path d="M5635 931 c-3 -5 -2 -12 3 -15 5 -3 9 1 9 9 0 17 -3 19 -12 6z"/>
<path d="M5935 929 c-4 -6 -5 -12 -2 -15 2 -3 7 2 10 11 7 17 1 20 -8 4z"/>
<path d="M6296 927 c3 -10 9 -15 12 -12 3 3 0 11 -7 18 -10 9 -11 8 -5 -6z"/>
<path d="M6435 931 c-3 -5 -2 -12 3 -15 5 -3 9 1 9 9 0 17 -3 19 -12 6z"/>
<path d="M6629 923 c-13 -16 -12 -17 4 -4 9 7 17 15 17 17 0 8 -8 3 -21 -13z"/>
<path d="M6735 929 c-4 -6 -5 -12 -2 -15 2 -3 7 2 10 11 7 17 1 20 -8 4z"/>
<path d="M6853 925 c0 -8 4 -12 9 -9 5 3 6 10 3 15 -9 13 -12 11 -12 -6z"/>
<path d="M7393 925 c0 -8 4 -12 9 -9 5 3 6 10 3 15 -9 13 -12 11 -12 -6z"/>
<path d="M2975 920 c3 -5 8 -10 11 -10 2 0 4 5 4 10 0 6 -5 10 -11 10 -5 0 -7
-4 -4 -10z"/>
<path d="M3270 925 c0 -7 30 -13 34 -7 3 4 -4 9 -15 9 -10 1 -19 0 -19 -2z"/>
<path d="M3346 922 c-2 -4 4 -8 14 -8 10 0 16 4 14 8 -3 4 -9 8 -14 8 -5 0
-11 -4 -14 -8z"/>
<path d="M3430 919 c0 -5 5 -7 10 -4 6 3 10 8 10 11 0 2 -4 4 -10 4 -5 0 -10
-5 -10 -11z"/>
<path d="M3590 925 c0 -7 30 -13 34 -7 3 4 -4 9 -15 9 -10 1 -19 0 -19 -2z"/>
<path d="M3665 919 c-3 -4 2 -6 10 -5 21 3 28 13 10 13 -9 0 -18 -4 -20 -8z"/>
<path d="M3836 918 c3 -5 10 -6 15 -3 13 9 11 12 -6 12 -8 0 -12 -4 -9 -9z"/>
<path d="M3870 919 c0 -5 5 -7 10 -4 6 3 10 8 10 11 0 2 -4 4 -10 4 -5 0 -10
-5 -10 -11z"/>
<path d="M4310 925 c0 -7 30 -13 34 -7 3 4 -4 9 -15 9 -10 1 -19 0 -19 -2z"/>
<path d="M4510 919 c0 -5 5 -7 10 -4 6 3 10 8 10 11 0 2 -4 4 -10 4 -5 0 -10
-5 -10 -11z"/>
<path d="M4950 925 c0 -7 30 -13 34 -7 3 4 -4 9 -15 9 -10 1 -19 0 -19 -2z"/>
<path d="M5195 920 c3 -5 8 -10 11 -10 2 0 4 5 4 10 0 6 -5 10 -11 10 -5 0 -7
-4 -4 -10z"/>
<path d="M5270 918 c0 -4 4 -8 9 -8 6 0 12 4 15 8 3 5 -1 9 -9 9 -8 0 -15 -4
-15 -9z"/>
<path d="M5496 922 c-3 -5 1 -9 9 -9 8 0 12 4 9 9 -3 4 -7 8 -9 8 -2 0 -6 -4
-9 -8z"/>
<path d="M6055 920 c3 -5 8 -10 11 -10 2 0 4 5 4 10 0 6 -5 10 -11 10 -5 0 -7
-4 -4 -10z"/>
<path d="M6550 925 c0 -7 30 -13 34 -7 3 4 -4 9 -15 9 -10 1 -19 0 -19 -2z"/>
<path d="M6935 920 c3 -5 8 -10 11 -10 2 0 4 5 4 10 0 6 -5 10 -11 10 -5 0 -7
-4 -4 -10z"/>
<path d="M6330 886 c0 -2 7 -7 16 -10 8 -3 12 -2 9 4 -6 10 -25 14 -25 6z"/>
</g>
</svg>
